Coordinates
version=1
nRows=13
nColumns=40
inDegrees=yes

Units are S.I. units (second, meters, Newtons, ...)
Angles are in degrees.

endheader
time	pelvis_tilt	pelvis_list	pelvis_rotation	pelvis_tx	pelvis_ty	pelvis_tz	hip_flexion_r	hip_adduction_r	hip_rotation_r	knee_angle_r	knee_angle_r_beta	ankle_angle_r	subtalar_angle_r	mtp_angle_r	hip_flexion_l	hip_adduction_l	hip_rotation_l	knee_angle_l	knee_angle_l_beta	ankle_angle_l	subtalar_angle_l	mtp_angle_l	lumbar_extension	lumbar_bending	lumbar_rotation	arm_flex_r	arm_add_r	arm_rot_r	elbow_flex_r	pro_sup_r	wrist_flex_r	wrist_dev_r	arm_flex_l	arm_add_l	arm_rot_l	elbow_flex_l	pro_sup_l	wrist_flex_l	wrist_dev_l
      2.80500000	     -3.20552985	    -15.66866636	     20.91101696	     -1.08498909	      0.91233912	      0.09364002	     31.36028029	    -14.10713244	     10.59220056	     17.19018267	     17.19018267	    -21.93728342	      0.00000000	      0.00000000	     15.98097794	     -3.25342350	      6.87184637	     97.40845219	     97.40845219	      6.36772382	      0.00000000	      0.00000000	    -24.52510374	     18.06203081	    -23.41292933	    -32.59879319	    -11.68567194	    -32.49463366	    110.85133445	     87.37471136	      0.00000000	      0.00000000	    -12.68732863	    -22.11649042	    -15.25192229	     83.99399486	     73.63456764	      0.00000000	      0.00000000
      2.81000000	     -2.80686715	    -15.38078669	     20.88977924	     -1.05928594	      0.90844003	      0.09143406	     30.34634404	    -14.01139739	     10.23373663	     18.89979011	     18.89979011	    -19.49041289	      0.00000000	      0.00000000	     17.86083486	     -3.62472712	      5.87619968	    100.01209508	    100.01209508	      7.05572124	      0.00000000	      0.00000000	    -25.74055227	     17.24755453	    -22.11219104	    -31.31779013	    -12.37988154	    -31.77986105	    111.67316168	     87.39837816	      0.00000000	      0.00000000	    -13.37773814	    -21.06001352	    -14.94647094	     80.67207313	     73.41320286	      0.00000000	      0.00000000
      2.81500000	     -2.40177526	    -15.09263356	     20.84836658	     -1.03350204	      0.90431203	      0.08931673	     29.21371926	    -13.93726032	      9.61107479	     20.60052697	     20.60052697	    -16.39289386	      0.00000000	      0.00000000	     19.81384948	     -4.06237138	      4.80799001	    102.44420842	    102.44420842	      7.73529077	      0.00000000	      0.00000000	    -26.91928747	     16.35530716	    -20.71939512	    -29.93932979	    -13.19804621	    -31.01173716	    112.45842607	     87.21948324	      0.00000000	      0.00000000	    -14.11378785	    -20.13229587	    -14.06012692	     78.15956915	     58.26575295	      0.00000000	      0.00000000
      2.82000000	     -1.99149498	    -14.81272929	     20.78242822	     -1.00765671	      0.90001945	      0.08725614	     27.95487905	    -13.88129485	      8.77387657	     22.24065932	     22.24065932	    -12.70398257	      0.00000000	      0.00000000	     21.83844623	     -4.57255554	      3.66958071	    104.68449616	    104.68449616	      8.39103182	      0.00000000	      0.00000000	    -28.07249304	     15.40362601	    -19.27894411	    -28.41130340	    -14.15815192	    -30.18515651	    113.19687100	     87.08953795	      0.00000000	      0.00000000	    -14.73927656	    -19.29378671	    -13.69291750	     75.27133599	     49.22094514	      0.00000000	      0.00000000
      2.82500000	     -1.57073013	    -14.55190559	     20.69262741	     -0.98177778	      0.89566119	      0.08519194	     26.56147195	    -13.83079179	      7.78689920	     23.77230436	     23.77230436	     -8.56324164	      0.00000000	      0.00000000	     23.92534391	     -5.16010708	      2.46891956	    106.70794158	    106.70794158	      9.00668479	      0.00000000	      0.00000000	    -29.19963874	     14.40954906	    -17.77226272	    -26.73357900	    -15.24077754	    -29.33185370	    113.89631570	     86.90949826	      0.00000000	      0.00000000	    -15.28666747	    -18.56812346	    -13.59386684	     72.15416321	     43.41979519	      0.00000000	      0.00000000
      2.83000000	     -1.12815496	    -14.32182693	     20.58388994	     -0.95589756	      0.89136966	      0.08303448	     25.02590894	    -13.76685608	      6.72054182	     25.15638440	     25.15638440	     -4.16841745	      0.00000000	      0.00000000	     26.05614098	     -5.82597966	      1.21912648	    108.48422153	    108.48422153	      9.56826588	      0.00000000	      0.00000000	    -30.31097760	     13.39682858	    -16.18902643	    -24.90179810	    -16.43514590	    -28.48370655	    114.56077508	     86.65864509	      0.00000000	      0.00000000	    -15.77170217	    -17.96151808	    -13.67096827	     68.89905296	     40.10491827	      0.00000000	      0.00000000
      2.83500000	     -0.65013567	    -14.13310788	     20.46190856	     -0.93004803	      0.88729942	      0.08067358	     23.34582743	    -13.66825016	      5.64515980	     26.36857221	     26.36857221	      0.25527358	      0.00000000	      0.00000000	     28.20555483	     -6.56562643	     -0.06426381	    109.97842352	    109.97842352	     10.06388587	      0.00000000	      0.00000000	    -31.42014663	     12.39016555	    -14.52467636	    -22.91295346	    -17.73898605	    -27.66376496	    115.19449438	     86.29976475	      0.00000000	      0.00000000	    -16.21396025	    -17.46398280	    -13.87240878	     65.65131303	     38.18927500	      0.00000000	      0.00000000
      2.84000000	     -0.12641649	    -13.99273497	     20.32626662	     -0.90425372	      0.88360812	      0.07799944	     21.53080005	    -13.51579870	      4.63035006	     27.40418415	     27.40418415	      4.48665544	      0.00000000	      0.00000000	     30.34482584	     -7.36978390	     -1.37033804	    111.15408667	    111.15408667	     10.48490264	      0.00000000	      0.00000000	    -32.53875691	     11.40626481	    -12.77874885	    -20.76778422	    -19.15385937	    -26.88422384	    115.80134914	     85.76095096	      0.00000000	      0.00000000	    -16.63275157	    -17.05341961	    -14.20136253	     62.47540830	     37.87748816	      0.00000000	      0.00000000
      2.84500000	      0.44286188	    -13.90062337	     20.16482623	     -0.87852746	      0.88042823	      0.07492633	     19.60873232	    -13.29972701	      3.74647049	     28.27986149	     28.27986149	      8.33719089	      0.00000000	      0.00000000	     32.44727517	     -8.22522601	     -2.69974571	    111.97812086	    111.97812086	     10.82728577	      0.00000000	      0.00000000	    -33.66771751	     10.44490342	    -10.95279903	    -18.47763702	    -20.67999442	    -26.14739298	    116.38827349	     84.92172432	      0.00000000	      0.00000000	    -17.06534073	    -16.70408005	    -14.64042145	     59.58707331	     37.52256368	      0.00000000	      0.00000000
      2.85000000	      1.04156605	    -13.84677637	     19.95247529	     -0.85286914	      0.87783415	      0.07141188	     17.62765077	    -13.02744097	      3.06257832	     29.02987235	     29.02987235	     11.67261663	      0.00000000	      0.00000000	     34.49413485	     -9.11529286	     -4.06763485	    112.42742102	    112.42742102	     11.09328794	      0.00000000	      0.00000000	    -34.78897484	      9.48349331	     -9.05712684	    -16.06408677	    -22.31286820	    -25.43817142	    116.97128801	     83.55428922	      0.00000000	      0.00000000	    -17.55270225	    -16.39292138	    -15.20249126	     57.07419345	     37.19353821	      0.00000000	      0.00000000
      2.85500000	      1.63797944	    -13.81200242	     19.65697133	     -0.82726740	      0.87581945	      0.06746237	     15.64759928	    -12.72685362	      2.63428504	     29.69571896	     29.69571896	     14.42587740	      0.00000000	      0.00000000	     36.47783373	    -10.02116240	     -5.49879939	    112.49471730	    112.49471730	     11.29258637	      0.00000000	      0.00000000	    -35.86665907	      8.48385806	     -7.10691675	    -13.53741471	    -24.02914603	    -24.89225987	    117.50247403	     83.43723213	      0.00000000	      0.00000000	    -18.14496457	    -16.11128457	    -15.87436435	     55.01974072	     37.02051642	      0.00000000	      0.00000000
      2.86000000	      2.19288849	    -13.77306059	     19.24991724	     -0.80170226	      0.87430220	      0.06312004	     13.72355152	    -12.44070460	      2.48772389	     30.30999357	     30.30999357	     16.59271633	      0.00000000	      0.00000000	     38.40047468	    -10.92469197	     -7.01554194	    112.18982100	    112.18982100	     11.43901982	      0.00000000	      0.00000000	    -36.84438766	      7.40086339	     -5.15016708	    -11.03237357	    -25.84639834	    -23.91117157	    118.30547846	     76.80364172	      0.00000000	      0.00000000	    -18.90735371	    -15.85777313	    -16.66192613	     53.40325603	     38.31808179	      0.00000000	      0.00000000
      2.86500000	      2.67031431	    -13.71155710	     18.71833433	     -0.77614916	      0.87315476	      0.05843860	     11.88974244	    -12.21276823	      2.60929903	     30.88211649	     30.88211649	     18.21318098	      0.00000000	      0.00000000	     40.27159340	    -11.81216162	     -8.62317066	    111.53623158	    111.53623158	     11.54218057	      0.00000000	      0.00000000	    -37.67650295	      6.21037731	     -3.21271080	     -8.50777904	    -27.70307322	    -22.98105317	    119.21665639	     69.79251275	      0.00000000	      0.00000000	    -19.88478673	    -15.64758974	    -17.52306836	     52.21718062	     42.02998997	      0.00000000	      0.00000000
